<svg width="1289" height="345" viewBox="0 0 1289 345" fill="none" xmlns="http://www.w3.org/2000/svg">
<path d="M97.9 7.5H248.4C297.6 7.5 337.5 47.4 337.5 96.6V247.1C337.5 296.3 297.6 336.2 248.4 336.2H97.9C48.7 336.2 8.80005 296.3 8.80005 247.1V96.6C8.80005 47.4 48.7 7.5 97.9 7.5Z" fill="#F4F4F4" stroke="#F4F4F4" stroke-width="2" stroke-miterlimit="10"/>
<path d="M544.971 252.543C530.892 258.728 513.273 261.821 492.114 261.821C430.509 261.821 399.707 231.507 399.707 170.878C399.707 113.505 431.038 84.8188 493.701 84.8188C512.826 84.8188 529.915 87.6671 544.971 93.3637V122.661C529.915 116.15 513.639 112.895 496.143 112.895C454.232 112.895 433.276 132.223 433.276 170.878C433.276 212.789 453.052 233.745 492.603 233.745C498.462 233.745 505.135 232.768 512.622 230.815V180.034H544.971V252.543ZM566.333 220.683C566.333 195.211 584.888 182.475 621.997 182.475C630.705 182.475 639.412 183.289 648.12 184.916V175.273C648.12 163.798 639.86 158.061 623.34 158.061C609.342 158.061 593.799 160.095 576.709 164.164V138.53C593.799 134.461 609.342 132.426 623.34 132.426C661.426 132.426 680.469 146.505 680.469 174.663V260.6H661.67L650.195 249.125C639.046 256.775 626.758 260.6 613.33 260.6C581.999 260.6 566.333 247.294 566.333 220.683ZM648.12 206.889C639.982 205.261 631.274 204.448 621.997 204.448C606.453 204.448 598.682 209.737 598.682 220.317C598.682 231.71 605.192 237.407 618.213 237.407C628.955 237.407 638.924 234.07 648.12 227.397V206.889ZM743.457 230.937C750.863 233.297 759.448 234.477 769.214 234.477C788.745 234.477 798.511 220.683 798.511 193.095C798.511 170.553 790.088 159.282 773.242 159.282C762.337 159.282 752.409 161.479 743.457 165.873V230.937ZM711.108 86.0395H743.457V142.192C753.141 135.681 763.924 132.426 775.806 132.426C812.264 132.426 830.493 152.934 830.493 193.95C830.493 238.383 809.619 260.6 767.871 260.6C750.293 260.6 731.372 258.85 711.108 255.351V86.0395ZM854.907 260.6V132.426H879.932L883.96 148.784C895.19 137.879 907.072 132.426 919.604 132.426V158.549C907.56 158.549 896.777 163.554 887.256 173.564V260.6H854.907ZM970.264 86.0395V111.674H937.915V86.0395H970.264ZM970.264 132.426V260.6H937.915V132.426H970.264ZM1054.98 132.426C1093.88 132.426 1113.33 152.283 1113.33 191.997C1113.33 197.286 1112.96 202.576 1112.23 207.866H1027.15C1027.15 225.932 1040.41 234.965 1066.94 234.965C1079.88 234.965 1092.82 233.745 1105.76 231.303V256.938C1094.45 259.379 1080.7 260.6 1064.5 260.6C1018.03 260.6 994.8 238.749 994.8 195.048C994.8 153.3 1014.86 132.426 1054.98 132.426ZM1027.15 185.405H1081.84V184.428C1081.84 166.687 1072.88 157.817 1054.98 157.817C1037.89 157.817 1028.61 167.013 1027.15 185.405ZM1169.97 86.0395V260.6H1137.62V86.0395H1169.97Z" fill="#F4F4F4"/>
<path d="M245.621 252.543C231.542 258.728 213.923 261.821 192.764 261.821C131.159 261.821 100.357 231.507 100.357 170.878C100.357 113.505 131.688 84.8188 194.351 84.8188C213.475 84.8188 230.565 87.6671 245.621 93.3637V122.661C230.565 116.15 214.289 112.895 196.792 112.895C154.882 112.895 133.926 132.223 133.926 170.878C133.926 212.789 153.702 233.745 193.252 233.745C199.112 233.745 205.785 232.768 213.272 230.815V180.034H245.621V252.543Z" fill="#8B5CF6"/>
<path d="M245.621 252.543L248.436 258.952L252.621 257.114V252.543H245.621ZM245.621 93.3637H252.621V88.528L248.098 86.8167L245.621 93.3637ZM245.621 122.661L242.842 129.086L252.621 133.314V122.661H245.621ZM213.272 230.815L215.039 237.588L220.272 236.223V230.815H213.272ZM213.272 180.034V173.034H206.272V180.034H213.272ZM245.621 180.034H252.621V173.034H245.621V180.034ZM242.805 246.135C229.881 251.812 213.295 254.821 192.764 254.821V268.821C214.551 268.821 233.203 265.644 248.436 258.952L242.805 246.135ZM192.764 254.821C163.013 254.821 141.991 247.502 128.369 234.096C114.768 220.71 107.357 200.085 107.357 170.878H93.3569C93.3569 202.3 101.347 227.146 118.549 244.074C135.729 260.983 160.911 268.821 192.764 268.821V254.821ZM107.357 170.878C107.357 143.437 114.821 124.096 128.583 111.497C142.461 98.7898 163.953 91.8188 194.351 91.8188V77.8188C162.086 77.8188 136.582 85.191 119.128 101.171C101.558 117.258 93.3569 140.946 93.3569 170.878H107.357ZM194.351 91.8188C212.785 91.8188 229.013 94.5641 243.143 99.9107L248.098 86.8167C232.117 80.7701 214.166 77.8188 194.351 77.8188V91.8188ZM238.621 93.3637V122.661H252.621V93.3637H238.621ZM248.399 116.236C232.409 109.321 215.18 105.895 196.792 105.895V119.895C213.398 119.895 228.722 122.979 242.842 129.086L248.399 116.236ZM196.792 105.895C174.892 105.895 157.162 110.933 144.897 122.245C132.525 133.656 126.926 150.32 126.926 170.878H140.926C140.926 152.781 145.805 140.453 154.389 132.536C163.079 124.521 176.782 119.895 196.792 119.895V105.895ZM126.926 170.878C126.926 192.815 132.094 210.569 143.667 222.832C155.311 235.172 172.291 240.745 193.252 240.745V226.745C174.663 226.745 161.98 221.84 153.849 213.224C145.646 204.532 140.926 190.853 140.926 170.878H126.926ZM193.252 240.745C199.863 240.745 207.147 239.647 215.039 237.588L211.505 224.042C204.423 225.889 198.36 226.745 193.252 226.745V240.745ZM220.272 230.815V180.034H206.272V230.815H220.272ZM213.272 187.034H245.621V173.034H213.272V187.034ZM238.621 180.034V252.543H252.621V180.034H238.621Z" fill="#8B5CF6"/>
</svg>
